{"title":"2 Guns (2013) DVDRip XviD-MAX","uid":9149398,"size":1683724864,"categoryP":"video","categoryS":"movies","magnet":"?xt=urn:btih:b943b5102df02e9a4653ba8c4bb6d1a8d07d17af&amp;dn=2+Guns+%282013%29+DVDRip+XviD-MAX&amp;tr=udp%3A%2F%2Ftracker.openbittorrent.com%3A80&amp;tr=udp%3A%2F%2Fopen.demonii.com%3A1337&amp;tr=udp%3A%2F%2Ftracker.coppersurfer.tk%3A6969&amp;tr=udp%3A%2F%2Fexodus.desync.com%3A6969","seeders":61,"leechers":11,"uploader":"extremezone","files":-1,"time":1383661136,"description":" &lt;a href=&quot;http://img21.imageshack.us/img21/2290/c7vg.jpg&quot; rel=&quot;nofollow&quot; target=&quot;_NEW&quot;&gt;http://img21.imageshack.us/img21/2290/c7vg.jpg&lt;/a&gt;\n\nScreens:\n &lt;a href=&quot;\nhttp://img407.imageshack.us/img407/6498/iubj.jpg&quot; rel=&quot;nofollow&quot; target=&quot;_NEW&quot;&gt;\nhttp://img407.imageshack.us/img407/6498/iubj.jpg&lt;/a&gt; &lt;a href=&quot;\nhttp://img24.imageshack.us/img24/5091/o305.jpg&quot; rel=&quot;nofollow&quot; target=&quot;_NEW&quot;&gt;\nhttp://img24.imageshack.us/img24/5091/o305.jpg&lt;/a&gt; &lt;a href=&quot;\nhttp://img6.imageshack.us/img6/2856/tvo4.jpg&quot; rel=&quot;nofollow&quot; target=&quot;_NEW&quot;&gt;\nhttp://img6.imageshack.us/img6/2856/tvo4.jpg&lt;/a&gt; &lt;a href=&quot;\nhttp://img690.imageshack.us/img690/9152/yfit.jpg&quot; rel=&quot;nofollow&quot; target=&quot;_NEW&quot;&gt;\nhttp://img690.imageshack.us/img690/9152/yfit.jpg&lt;/a&gt;\n\nScreenCaps:\n &lt;a href=&quot;\nhttp://cdn.piczend.com/images/hpTaRrSG/1383657187_screencaps.jpeg&quot; rel=&quot;nofollow&quot; target=&quot;_NEW&quot;&gt;\nhttp://cdn.piczend.com/images/hpTaRrSG/1383657187_screencaps.jpeg&lt;/a&gt;\n\n2 Guns (2013) DVDRip XviD-MAX\nFormat                                   : AVI\nFormat/Info                              : Audio Video Interleave\nFormat profile                           : OpenDML\nFormat settings                          : rec\nFile size                                : 1.56 GiB\nDuration                                 : 1h 49mn\nOverall bit rate                         : 2 042 Kbps\nWriting application                      : VirtualDubMod 1.5.10.2 (build 2542/release)\nWriting library                          : VirtualDubMod build 2542/release\nOriginal source form                     : MAX TORRENTZ\nCopyright                                : SIGISMUNT\n\nVideo\nID                                       : 0\nFormat                                   : MPEG-4 Visual\nFormat profile                           : Advanced Simple@L5\nFormat settings, BVOP                    : 1\nFormat settings, QPel                    : No\nFormat settings, GMC                     : No warppoints\nFormat settings, Matrix                  : Custom\nCodec ID                                 : XVID\nCodec ID/Hint                            : XviD\nDuration                                 : 1h 49mn\nBit rate                                 : 1 653 Kbps\nWidth                                    : 720 pixels\nHeight                                   : 304 pixels\nDisplay aspect ratio                     : 2.35:1\nFrame rate                               : 23.976 fps\nColor space                              : YUV\nChroma subsampling                       : 4:2:0\nBit depth                                : 8 bits\nScan type                                : Progressive\nCompression mode                         : Lossy\nBits/(Pixel*Frame)                       : 0.315\nStream size                              : 1.26 GiB (81%)\nWriting library                          : XviD 1.2.1 (UTC 2008-12-04)\n\nAudio\nID                                       : 1\nFormat                                   : AC-3\nFormat/Info                              : Audio Coding 3\nMode extension                           : CM (complete main)\nFormat settings, Endianness              : Big\nCodec ID                                 : 2000\nDuration                                 : 1h 49mn\nBit rate mode                            : Constant\nBit rate                                 : 384 Kbps\nChannel(s)                               : 6 channels\nChannel positions                        : Front: L C R, Side: L R, LFE\nSampling rate                            : 48.0 KHz\nBit depth                                : 16 bits\nCompression mode                         : Lossy\nStream size                              : 300 MiB (19%)\nAlignment                                : Aligned on interleaves\nInterleave, duration                     : 64 ms (1.53 video frames)\nInterleave, preload duration             : 192 ms\n\nSource: WEBDL DVD (perfect a/v/sync quality,sample included)\nThis torrent is not seedbox supported,please seed it to the MAX\n\nNote:If you have something to offer as early releases,seedboxes,\nlinks,accounts,etc please contact us on torentz 3xforum ro\n\n2 Guns (2013) DVDRip XviD-MAX Torrent Free Download\n &lt;a href=&quot;\nhttp://thepiratebay.se/user/extremezone/0/7/0&quot; rel=&quot;nofollow&quot; target=&quot;_NEW&quot;&gt;\nhttp://thepiratebay.se/user/extremezone/0/7/0&lt;/a&gt;\n\nHow To Get Your MAXSPEED (uTorrent)\n\nTorrent Client - Preferences - Bandwidth - Number of connections - Set aprox. 500 for each\nTorrent Client - Preferences - BiTorrent - Protocol Encryption - Forced\nBandwidth Allocation - High (Set download/upload limit - Unlimited)\nStop Other Active Torrents - Start downloading and wait for connections.\nEnjoy and Seed for at least 1:1 ratio. Don't forget to say thanks/leave reviews.\nIf screens/Caps image host is dead google search &quot;release name&quot;&quot;screens&quot; or &quot;sample&quot;.\nGreets to all actual/future p2p/scene QUALITY groups and affiliate websites.\nDon't trust IMDb robot or bad ratings,always watch some trailers first.\nIgnore stupid comments/fake/mislabeled/no-DVDrips/CAM/TS/RAR uploads.\nPlease spread this release/torrent to your friends/forums/etc.\nIf you need translation subs visit some subtitles sites.\nReport if you see online streaming or other spam links.\nRecommended movie player VLC PLAYER.","torrent":{"xt":"urn:btih:b943b5102df02e9a4653ba8c4bb6d1a8d07d17af","amp;dn":"2+Guns+%282013%29+DVDRip+XviD-MAX","amp;tr":["udp%3A%2F%2Ftracker.openbittorrent.com%3A80","udp%3A%2F%2Fopen.demonii.com%3A1337","udp%3A%2F%2Ftracker.coppersurfer.tk%3A6969","udp%3A%2F%2Fexodus.desync.com%3A6969"],"infoHash":"b943b5102df02e9a4653ba8c4bb6d1a8d07d17af","infoHashBuffer":{"type":"Buffer","data":[185,67,181,16,45,240,46,154,70,83,186,140,75,182,209,168,208,125,23,175]},"announce":[],"urlList":[]}}